<?xml version="1.0" standalone="no"?><!DOCTYPE svg PUBLIC "-//W3C//DTD SVG 1.1//EN" "http://www.w3.org/Graphics/SVG/1.1/DTD/svg11.dtd"><svg t="1724566915517" class="icon" viewBox="0 0 1024 1024" version="1.1" xmlns="http://www.w3.org/2000/svg" p-id="5040" xmlns:xlink="http://www.w3.org/1999/xlink" width="200" height="200"><path d="M512 512m-447 0a447 447 0 1 0 894 0 447 447 0 1 0-894 0Z" fill="#36ab86" p-id="5041" data-spm-anchor-id="a313x.search_index.0.i11.3d9c3a81FYgUq4" class="selected"></path><path d="M320.429 484.633h383.143c15.114 0 27.367 12.252 27.367 27.367 0 15.114-12.253 27.367-27.367 27.367H320.429c-15.115 0-27.367-12.253-27.367-27.367-0.001-15.115 12.252-27.367 27.367-27.367z" fill="#ffffff" p-id="5042" data-spm-anchor-id="a313x.search_index.0.i10.3d9c3a81FYgUq4" class=""></path><path d="M512 293.061c15.114 0 27.367 12.252 27.367 27.367v383.143c0 15.114-12.253 27.367-27.367 27.367-15.115 0-27.367-12.253-27.367-27.367V320.429c0-15.115 12.252-27.368 27.367-27.368z" fill="#ffffff" p-id="5043" data-spm-anchor-id="a313x.search_index.0.i9.3d9c3a81FYgUq4" class=""></path></svg>