<?xml version="1.0" standalone="no"?><!DOCTYPE svg PUBLIC "-//W3C//DTD SVG 1.1//EN" "http://www.w3.org/Graphics/SVG/1.1/DTD/svg11.dtd"><svg t="1724490997628" class="icon" viewBox="0 0 1054 1024" version="1.1" xmlns="http://www.w3.org/2000/svg" p-id="1997" xmlns:xlink="http://www.w3.org/1999/xlink" width="205.859375" height="200"><path d="M400.775529 1004.182588h237.839059v-114.537412h-237.839059z" fill="#2BBB66" p-id="1998"></path><path d="M797.184 220.250353l-1.475765-0.030118H405.022118v56.440471a150.588235 150.588235 0 0 1 70.565647 127.518118 150.768941 150.768941 0 1 1-224.527059-131.403295V220.220235h-7.348706A243.712 243.712 0 0 0 0 463.932235v394.541177c0 17.257412 13.974588 31.201882 31.201882 31.201882h523.745883V463.932235a243.681882 243.681882 0 0 1 242.236235-243.681882" fill="#31EC7C" p-id="1999"></path><path d="M798.659765 220.220235h-2.95153 2.95153M797.184 220.250353a243.681882 243.681882 0 0 0-242.236235 243.651765V889.675294h453.270588c17.227294 0 31.201882-13.944471 31.201882-31.201882v-394.541177a243.712 243.712 0 0 0-242.236235-243.681882" fill="#2BBB66" p-id="2000"></path><path d="M405.022118 153.991529V0H103.484235v153.961412h147.576471v66.228706h153.961412z" fill="#F9D11F" p-id="2001"></path><path d="M174.08 404.178824a150.768941 150.768941 0 1 0 301.537882 0 150.528 150.528 0 0 0-70.565647-127.518118V220.220235H251.060706v52.555294A150.648471 150.648471 0 0 0 174.08 404.178824" fill="#2BBB66" p-id="2002"></path><path d="M552.749176 819.2h238.381177a87.552 87.552 0 0 0 87.521882-87.521882v-212.510118a87.521882 87.521882 0 0 0-87.521882-87.521882h-238.381177V819.2z" fill="#FFFFFF" p-id="2003"></path></svg>