<?xml version="1.0" standalone="no"?><!DOCTYPE svg PUBLIC "-//W3C//DTD SVG 1.1//EN" "http://www.w3.org/Graphics/SVG/1.1/DTD/svg11.dtd"><svg t="1724724286527" class="icon" viewBox="0 0 1024 1024" version="1.1" xmlns="http://www.w3.org/2000/svg" p-id="7646" xmlns:xlink="http://www.w3.org/1999/xlink" width="64" height="64"><path d="M415.652075 846.309105H134.658065c5.3344-2.345691 10.000494-5.310316 14.601564-10.335248 20.908919-22.782582 38.088576-48.947631 60.230548-70.638046 27.894213-27.268053 29.57762-24.9621 53.573989-25.58826 46.705497-1.193316 93.910719-4.61552 139.780533-12.98559 97.576162-17.810633 180.815673-62.103007 244.492509-138.460782 15.883987-19.049707 31.332071-51.485986-9.757255-50.204767 14.489578-6.807079 24.781477-10.948163 34.37015-16.254866 74.744209-41.408427 144.090199-88.933953 188.033368-163.994854 11.859707-20.257472 25.384758-58.962575-14.641301-51.399288 22.076948-21.432726 43.858879-39.11331 61.219158-60.243794 25.767678-31.332071 18.987091-53.059815-18.422342-68.574127-12.842296-5.528268-27.743694-9.02513-43.384443-9.665739-51.074166-8.728908-120.368377 4.704627-175.263321 33.961942 16.189842-39.422778-45.476057-22.127523-68.972702-16.063406-75.526909 19.472364-143.344828 54.701076-203.806574 102.804595 5.347645-33.462219-37.151744-13.936871-67.536147 11.126378-59.959614 49.511175-107.650109 108.614636-136.80507 180.13653-25.932647 63.667202-25.767678 128.242336-2.499823 188.213991 78.676974-86.444968 153.498249-169.072769 249.826908-252.172598 107.83314-93.124406 236.676348-164.728184 311.480765-171.149934C469.304333 386.047964 282.896572 619.685029 101.492068 858.333781h314.160007v-12.024676z" fill="#fc90a0" p-id="7647" data-spm-anchor-id="a313x.search_index.0.i1.295d3a81406mw2" class="selected"></path></svg>