<?xml version="1.0" standalone="no"?><!DOCTYPE svg PUBLIC "-//W3C//DTD SVG 1.1//EN" "http://www.w3.org/Graphics/SVG/1.1/DTD/svg11.dtd"><svg t="1724490498339" class="icon" viewBox="0 0 1024 1024" version="1.1" xmlns="http://www.w3.org/2000/svg" p-id="18285" xmlns:xlink="http://www.w3.org/1999/xlink" width="200" height="200"><path d="M515.3792 181.8624l8.3968 30.8736 0.1536 0.9216 37.4784 126.464 119.7056 0.1024a153.4976 153.4976 0 0 1 153.2928 144.384l0.256 9.0112v10.24a46.2848 46.2848 0 0 1 56.4224 44.9536v63.2832a46.1312 46.1312 0 0 1-56.4224 45.0048v20.8384a153.4976 153.4976 0 0 1-153.5488 153.4464H346.624c-84.7872 0-153.5488-68.7104-153.5488-153.4464V655.36a53.4016 53.4016 0 0 1-70.912-50.4832v-48.6912a53.4016 53.4016 0 0 1 70.912-50.4832V493.568a153.4976 153.4976 0 0 1 153.6-153.3952l144.8448-0.0512-26.9312-90.9824-96.9728 25.2416a20.1728 20.1728 0 0 1-24.576-14.2336l-8.3968-30.8736a20.1728 20.1728 0 0 1 14.4384-24.7808l141.824-36.9152c10.7008-2.816 21.6576 3.584 24.576 14.2336z m165.7344 211.712H346.624a100.1472 100.1472 0 0 0-100.1984 100.0448v184.32c0 55.296 44.8512 100.0448 100.1984 100.0448h334.5408a100.1472 100.1472 0 0 0 100.1984-100.0448v-184.32c0-55.2448-44.8512-100.0448-100.1984-100.0448zM353.5872 511.5904c13.4144 0 24.4736 9.8816 26.368 22.7328l0.3072 3.9424v106.7008a26.6752 26.6752 0 0 1-53.0432 3.9424l-0.3072-3.9424v-106.7008c0-14.7456 11.9296-26.6752 26.6752-26.6752z m327.7312-1.28a25.9584 25.9584 0 0 1 36.7104 36.6592l-34.5088 34.4576 34.816 34.7648a25.9072 25.9072 0 0 1 0.8704 35.6864l-0.9216 0.9728a25.9584 25.9584 0 0 1-35.7376 0.9216l-0.9216-0.9216-50.8416-50.7904a25.9072 25.9072 0 0 1-2.4576-38.8608zM585.984 146.944a37.4272 37.4272 0 1 1 0 74.9056h-0.1024a37.4272 37.4272 0 1 1 0-74.9056h0.1024z" fill="#67d8d4" p-id="18286"></path></svg>