<?xml version="1.0" standalone="no"?><!DOCTYPE svg PUBLIC "-//W3C//DTD SVG 1.1//EN" "http://www.w3.org/Graphics/SVG/1.1/DTD/svg11.dtd"><svg t="1724501075516" class="icon" viewBox="0 0 1024 1024" version="1.1" xmlns="http://www.w3.org/2000/svg" p-id="8121" data-spm-anchor-id="a313x.search_index.0.i8.68ad3a81B2pxop" xmlns:xlink="http://www.w3.org/1999/xlink" width="200" height="200"><path d="M285.642105 851.536842v45.810526s0 43.115789 67.368421 40.421053c35.031579-2.694737 70.063158-8.084211 102.4-18.863158 18.863158 2.694737 35.031579 5.389474 53.894737 5.389474s13.473684 5.389474 88.926316-13.473684c32.336842 10.778947 67.368421 21.557895 102.4 26.947368 29.642105 0 53.894737-24.252632 53.894737-53.894737v-45.810526s175.157895-67.368421 223.663158-172.463158c0 0 32.336842-56.589474 13.473684-164.378947-24.252632-83.536842-70.063158-158.989474-134.736842-218.273685-64.673684-59.284211 32.336842-43.115789 61.978947-45.810526l-13.473684-26.947368c-26.947368 8.084211-51.2 24.252632-67.368421 48.505263-26.947368-24.252632-137.431579-107.789474-334.147369-113.178948 0 0-264.084211-16.168421-439.242105 245.221053-35.031579 56.589474-53.894737 118.568421-53.894737 185.936842 0 64.673684-8.084211 140.126316 148.210527 212.884211-2.694737-5.389474 102.4 51.2 126.652631 61.978947zM948.547368 142.821053c29.642105 0 53.894737 24.252632 53.894737 53.894736s-24.252632 53.894737-53.894737 53.894737-53.894737-24.252632-53.894736-53.894737c0-13.473684 5.389474-26.947368 16.168421-37.726315 10.778947-10.778947 24.252632-16.168421 37.726315-16.168421z m-169.768421 431.157894s-70.063158 48.505263-288.336842 53.894737c-215.578947-5.389474-296.421053-53.894737-296.421052-53.894737-45.810526-24.252632-40.421053-91.621053-40.421053-91.621052-2.694737-88.926316 115.873684-177.852632 115.873684-177.852632 67.368421-40.421053 142.821053-67.368421 220.968421-72.757895 75.452632 8.084211 148.210526 32.336842 212.884211 72.757895 64.673684 40.421053 115.873684 88.926316 115.873684 177.852632 2.694737-2.694737 2.694737 67.368421-40.421053 91.621052zM350.315789 369.178947c16.168421 0 29.642105 13.473684 29.642106 29.642106V485.052632c0 16.168421-13.473684 29.642105-29.642106 29.642105-16.168421 0-29.642105-13.473684-29.642105-29.642105v-86.231579c0-8.084211 2.694737-16.168421 8.084211-18.863158 5.389474-8.084211 13.473684-10.778947 21.557894-10.778948z m285.642106 0c8.084211 0 16.168421 2.694737 18.863158 8.084211 5.389474 5.389474 8.084211 13.473684 8.08421 18.863158V485.052632c0 16.168421-13.473684 29.642105-29.642105 29.642105-16.168421 0-29.642105-13.473684-29.642105-29.642105v-86.231579c2.694737-16.168421 16.168421-29.642105 32.336842-29.642106z m0 0" fill="#44c990" p-id="8122" data-spm-anchor-id="a313x.search_index.0.i6.68ad3a81B2pxop" class=""></path></svg>